<?xml version="1.0" encoding="utf-8"?>
<!-- Generator: Adobe Illustrator 19.0.0, SVG Export Plug-In . SVG Version: 6.00 Build 0)  -->
<!DOCTYPE svg PUBLIC "-//W3C//DTD SVG 1.1//EN" "http://www.w3.org/Graphics/SVG/1.1/DTD/svg11.dtd">
<svg version="1.1" id="register" xmlns="http://www.w3.org/2000/svg" xmlns:xlink="http://www.w3.org/1999/xlink" x="0px" y="0px"
	 viewBox="-350 483 66 60" enable-background="new -350 483 66 60" xml:space="preserve">
<g id="XMLID_2_">
	<circle id="XMLID_6_" cx="-332" cy="507" r="9"/>
	<circle id="XMLID_5_" cx="-302" cy="495" r="9"/>
	<path id="XMLID_4_" d="M-317,519h-3h-6l-6,6l-6-6h-9c-1.7,0-3,1.3-3,3v18h12h3h6h3h12v-12v-6C-314,520.3-315.3,519-317,519z"/>
	<path id="XMLID_3_" d="M-287,507h-9l-6,6l-6-6h-9c-1.7,0-3,1.3-3,3v6h3c3.3,0,6,2.7,6,6v6h3h3h6h3h12v-18
		C-284,508.3-285.3,507-287,507z"/>
</g>
</svg>
