<?xml version="1.0" encoding="utf-8"?>
<!-- Generator: Adobe Illustrator 19.0.0, SVG Export Plug-In . SVG Version: 6.00 Build 0)  -->
<!DOCTYPE svg PUBLIC "-//W3C//DTD SVG 1.1//EN" "http://www.w3.org/Graphics/SVG/1.1/DTD/svg11.dtd">
<svg version="1.1" id="login" xmlns="http://www.w3.org/2000/svg" xmlns:xlink="http://www.w3.org/1999/xlink" x="0px" y="0px"
	 viewBox="-350 483 66 60" enable-background="new -350 483 66 60" xml:space="preserve">
<g id="login">
	<g>
		<path id="XMLID_8_" d="M-297.5,511c-0.6,0-1.3,0.1-1.9,0.2c0.2-1,0.4-2.1,0.4-3.2c0-8.3-6.7-15-15-15c-5.1,0-9.6,2.6-12.3,6.5
			c-0.9-0.3-1.8-0.5-2.7-0.5c-5,0-9,4-9,9c0,1.1,0.2,2.1,0.6,3.1c-5.4,0.5-9.6,4.9-9.6,10.4c0,5.8,4.7,10.5,10.5,10.5h39
			c5.8,0,10.5-4.7,10.5-10.5S-291.7,511-297.5,511z M-305,511.2l-14,14c-1.1,1.1-2.9,1.1-4,0l-6-6v-8l8,8l16-16V511.2z"/>
	</g>
	<g>
		<path id="XMLID_6_" d="M-297.5,511c-0.6,0-1.3,0.1-1.9,0.2c0.2-1,0.4-2.1,0.4-3.2c0-8.3-6.7-15-15-15c-5.1,0-9.6,2.6-12.3,6.5
			c-0.9-0.3-1.8-0.5-2.7-0.5c-5,0-9,4-9,9c0,1.1,0.2,2.1,0.6,3.1c-5.4,0.5-9.6,4.9-9.6,10.4c0,5.8,4.7,10.5,10.5,10.5h39
			c5.8,0,10.5-4.7,10.5-10.5S-291.7,511-297.5,511z M-305,511.2l-14,14c-1.1,1.1-2.9,1.1-4,0l-6-6v-8l8,8l16-16V511.2z"/>
	</g>
</g>
</svg>
