<?xml version="1.0" encoding="utf-8"?>
<!-- Generator: Adobe Illustrator 18.1.1, SVG Export Plug-In . SVG Version: 6.00 Build 0)  -->
<svg version="1.1" xmlns="http://www.w3.org/2000/svg" xmlns:xlink="http://www.w3.org/1999/xlink" x="0px" y="0px"
	 viewBox="0 0 360 360" enable-background="new 0 0 360 360" xml:space="preserve">
<g id="puddle">
	<ellipse fill="#C2B59B" cx="170.2" cy="300.9" rx="161.7" ry="53.8"/>
</g>
<g id="poopy">
	<path d="M163,157.4c6.4,0,11.9,10.7,11.9,23.4c0,12.7-5.2,23.4-11.9,23.4c-6.4,0-11.9-10.7-11.9-23.4S156.7,157.4,163,157.4
		 M234.2,157.4c6.4,0,11.9,10.7,11.9,23.4c0,12.7-5.2,23.4-11.9,23.4c-6.4,0-11.9-10.7-11.9-23.4S227.9,157.4,234.2,157.4 M172.6,48
		c0,0,74.1,26.3,62.2,74.1c0,0,47.2,0,26.3,41.1c0,0,50.1,5.2,35.9,45.4c-15.3,14.2-18.8,18.2-33,28.4l33.6-18.8
		c12.4,5.8,48.3,27.8,8.1,57.6c-47.2,35.3-118.4,2.9-141.8,2.9c-23.4,0-47.2,8.7-59.3,8.7c-12.4,0-23.4-11.9-23.4-35.3
		s23.4-35.3,35.3-35.3c0,0-35.3-35.3,23.4-59.3c0,0-23.4-35.3,23.4-47.2c0,0-11.9-11.9,0-23.4C175.5,74.4,172.6,59.6,172.6,48
		 M151.5,228c15.9,14.2,31.8,27.8,47.2,27.8s31.8-13.6,47.2-27.8H151.5 M163,145c-13,0-23.4,15.9-23.4,35.3s10.7,35.3,23.4,35.3
		c13,0,23.4-15.9,23.4-35.3C187.3,160.9,176.6,145,163,145 M234.2,145c-13,0-23.4,15.9-23.4,35.3s10.7,35.3,23.4,35.3
		c13,0,23.4-15.9,23.4-35.3S247.2,145,234.2,145z"/>
</g>
</svg>
