<svg xmlns="http://www.w3.org/2000/svg" viewBox="-350 483 66 60"><path d="M-297.5 511c-.6 0-1.3.1-1.9.2.2-1 .4-2.1.4-3.2 0-8.3-6.7-15-15-15-5.1 0-9.6 2.6-12.3 6.5-.9-.3-1.8-.5-2.7-.5-5 0-9 4-9 9 0 1.1.2 2.1.6 3.1-5.4.5-9.6 4.9-9.6 10.4 0 5.8 4.7 10.5 10.5 10.5h39c5.8 0 10.5-4.7 10.5-10.5s-4.7-10.5-10.5-10.5zm-7.5.2l-14 14c-1.1 1.1-2.9 1.1-4 0l-6-6v-8l8 8 16-16v8z"/><path d="M-297.5 511c-.6 0-1.3.1-1.9.2.2-1 .4-2.1.4-3.2 0-8.3-6.7-15-15-15-5.1 0-9.6 2.6-12.3 6.5-.9-.3-1.8-.5-2.7-.5-5 0-9 4-9 9 0 1.1.2 2.1.6 3.1-5.4.5-9.6 4.9-9.6 10.4 0 5.8 4.7 10.5 10.5 10.5h39c5.8 0 10.5-4.7 10.5-10.5s-4.7-10.5-10.5-10.5zm-7.5.2l-14 14c-1.1 1.1-2.9 1.1-4 0l-6-6v-8l8 8 16-16v8z"/></svg>