<svg xmlns="http://www.w3.org/2000/svg" viewBox="0 0 360 360"><ellipse fill="#C2B59B" cx="170.2" cy="300.9" rx="161.7" ry="53.8"/><path d="M163 157.4c6.4 0 11.9 10.7 11.9 23.4s-5.2 23.4-11.9 23.4c-6.4 0-11.9-10.7-11.9-23.4s5.6-23.4 11.9-23.4m71.2 0c6.4 0 11.9 10.7 11.9 23.4s-5.2 23.4-11.9 23.4c-6.4 0-11.9-10.7-11.9-23.4s5.6-23.4 11.9-23.4M172.6 48s74.1 26.3 62.2 74.1c0 0 47.2 0 26.3 41.1 0 0 50.1 5.2 35.9 45.4-15.3 14.2-18.8 18.2-33 28.4l33.6-18.8c12.4 5.8 48.3 27.8 8.1 57.6-47.2 35.3-118.4 2.9-141.8 2.9-23.4 0-47.2 8.7-59.3 8.7-12.4 0-23.4-11.9-23.4-35.3s23.4-35.3 35.3-35.3c0 0-35.3-35.3 23.4-59.3 0 0-23.4-35.3 23.4-47.2 0 0-11.9-11.9 0-23.4 12.2-12.5 9.3-27.3 9.3-38.9m-21.1 180c15.9 14.2 31.8 27.8 47.2 27.8s31.8-13.6 47.2-27.8h-94.4m11.5-83c-13 0-23.4 15.9-23.4 35.3s10.7 35.3 23.4 35.3c13 0 23.4-15.9 23.4-35.3.9-19.4-9.8-35.3-23.4-35.3m71.2 0c-13 0-23.4 15.9-23.4 35.3s10.7 35.3 23.4 35.3c13 0 23.4-15.9 23.4-35.3S247.2 145 234.2 145z"/></svg>